<svg xmlns="http://www.w3.org/2000/svg" xmlns:xlink="http://www.w3.org/1999/xlink" width="6px" height="8px" viewBox="0 0 6 8" version="1.1">
    <!-- Generator: Sketch 3.8.1 (29687) - http://www.bohemiancoding.com/sketch -->
    <title>pause [#ffffff]</title>
    <desc fill="#ffffff">Created with Sketch.</desc>
    <defs fill="#ffffff"/>
    <g id="Page-1" stroke="none" stroke-width="1" fill="none" fill-rule="evenodd">
        <g id="Dribbble-Light-Preview" transform="translate(-227.000000, -3765.000000)" fill="#ffffff">
            <g id="icons" transform="translate(56.000000, 160.000000)">
                <path d="M172,3605 C171.448,3605 171,3605.448 171,3606 L171,3612 C171,3612.552 171.448,3613 172,3613 C172.552,3613 173,3612.552 173,3612 L173,3606 C173,3605.448 172.552,3605 172,3605 M177,3606 L177,3612 C177,3612.552 176.552,3613 176,3613 C175.448,3613 175,3612.552 175,3612 L175,3606 C175,3605.448 175.448,3605 176,3605 C176.552,3605 177,3605.448 177,3606" id="pause-[#ffffff]" fill="#ffffff"/>
            </g>
        </g>
    </g>
</svg>